<svg width="32" height="32" viewBox="0 0 32 32" fill="none" xmlns="http://www.w3.org/2000/svg">
  <rect width="32" height="32" rx="4" fill="#FBFDF8" />
  <path
    d="M6.10813 25.84C5.88146 25.88 5.72813 25.7667 5.64813 25.5C5.58146 25.2467 5.64813 25.08 5.84813 25C6.54146 24.7067 7.04146 24.2933 7.34813 23.76C7.66813 23.2267 7.86813 22.5467 7.94813 21.72C8.04146 20.8933 8.08813 19.9067 8.08813 18.76V11.72C8.08813 11.4667 8.06146 11.2267 8.00813 11C7.96813 10.76 7.86146 10.5667 7.68813 10.42C7.51479 10.26 7.21479 10.18 6.78813 10.18C6.65479 10.18 6.53479 10.1667 6.42813 10.14C6.33479 10.1133 6.28146 9.98667 6.26813 9.76C6.26813 9.65333 6.29479 9.55333 6.34813 9.46C6.41479 9.36667 6.50813 9.32 6.62813 9.32C7.05479 9.33333 7.45479 9.34667 7.82812 9.36C8.21479 9.37333 8.60813 9.38 9.00813 9.38C9.82146 9.38 10.6548 9.36 11.5081 9.32C11.6281 9.32 11.7148 9.36667 11.7681 9.46C11.8348 9.55333 11.8681 9.65333 11.8681 9.76C11.8548 9.98667 11.8015 10.1133 11.7081 10.14C11.6148 10.1667 11.4948 10.18 11.3481 10.18C10.9348 10.18 10.6348 10.26 10.4481 10.42C10.2748 10.5667 10.1681 10.76 10.1281 11C10.0881 11.2267 10.0615 11.4667 10.0481 11.72V19.44C10.0481 20.4933 9.92813 21.46 9.68813 22.34C9.44813 23.22 9.04146 23.96 8.46813 24.56C7.89479 25.1733 7.10813 25.6 6.10813 25.84ZM13.345 22.06C13.2117 22.06 13.1183 22.0133 13.065 21.92C13.0117 21.8267 12.985 21.7267 12.985 21.62C12.9983 21.3933 13.0517 21.2667 13.145 21.24C13.2383 21.2133 13.3517 21.2 13.485 21.2C13.9117 21.2 14.2117 21.1267 14.385 20.98C14.5583 20.82 14.665 20.6267 14.705 20.4C14.7583 20.16 14.785 19.9133 14.785 19.66V11.72C14.785 11.4667 14.7583 11.2267 14.705 11C14.665 10.76 14.5583 10.5667 14.385 10.42C14.2117 10.26 13.9117 10.18 13.485 10.18C13.3517 10.18 13.2383 10.1667 13.145 10.14C13.0517 10.1133 12.9983 9.98667 12.985 9.76C12.985 9.65333 13.0117 9.55333 13.065 9.46C13.1183 9.36667 13.2117 9.32 13.345 9.32C13.7717 9.33333 14.1717 9.34667 14.545 9.36C14.9183 9.37333 15.305 9.38 15.705 9.38C16.5183 9.38 17.3517 9.36 18.205 9.32C18.3383 9.32 18.4317 9.36667 18.485 9.46C18.5383 9.55333 18.565 9.65333 18.565 9.76C18.5517 9.98667 18.4983 10.1133 18.405 10.14C18.325 10.1667 18.2117 10.18 18.065 10.18C17.6517 10.18 17.3517 10.26 17.165 10.42C16.9917 10.5667 16.885 10.76 16.845 11C16.805 11.2267 16.7783 11.4667 16.765 11.72V15.26H23.045V11.72C23.045 11.4667 23.0183 11.2267 22.965 11C22.925 10.76 22.8183 10.5667 22.645 10.42C22.4717 10.26 22.1717 10.18 21.745 10.18C21.6117 10.18 21.4917 10.1667 21.385 10.14C21.2917 10.1133 21.2383 9.98667 21.225 9.76C21.225 9.65333 21.2517 9.55333 21.305 9.46C21.3717 9.36667 21.465 9.32 21.585 9.32C22.4517 9.36 23.285 9.38 24.085 9.38C24.485 9.38 24.8717 9.37333 25.245 9.36C25.6317 9.34667 26.0383 9.33333 26.465 9.32C26.585 9.32 26.6717 9.36667 26.725 9.46C26.7917 9.55333 26.825 9.65333 26.825 9.76C26.8117 9.98667 26.7583 10.1133 26.665 10.14C26.5717 10.1667 26.4583 10.18 26.325 10.18C25.9117 10.18 25.6117 10.26 25.425 10.42C25.2383 10.5667 25.125 10.76 25.085 11C25.045 11.2267 25.0183 11.4667 25.005 11.72V19.66C25.0183 19.9133 25.045 20.16 25.085 20.4C25.125 20.6267 25.2383 20.82 25.425 20.98C25.6117 21.1267 25.9117 21.2 26.325 21.2C26.4583 21.2 26.5717 21.2133 26.665 21.24C26.7583 21.2667 26.8117 21.3933 26.825 21.62C26.825 21.7267 26.7917 21.8267 26.725 21.92C26.6717 22.0133 26.585 22.06 26.465 22.06C26.0383 22.0333 25.6317 22.0133 25.245 22C24.8583 22 24.465 22 24.065 22C23.2783 22 22.4517 22.02 21.585 22.06C21.465 22.06 21.3717 22.0133 21.305 21.92C21.2517 21.8267 21.225 21.7267 21.225 21.62C21.2383 21.3933 21.2917 21.2667 21.385 21.24C21.4917 21.2133 21.6117 21.2 21.745 21.2C22.1717 21.2 22.4717 21.1267 22.645 20.98C22.8183 20.82 22.925 20.6267 22.965 20.4C23.0183 20.16 23.045 19.9133 23.045 19.66V16.12H16.765V19.66C16.7783 19.9133 16.805 20.16 16.845 20.4C16.885 20.6267 16.9917 20.82 17.165 20.98C17.3517 21.1267 17.6517 21.2 18.065 21.2C18.2117 21.2 18.325 21.2133 18.405 21.24C18.4983 21.2667 18.5517 21.3933 18.565 21.62C18.565 21.7267 18.5383 21.8267 18.485 21.92C18.4317 22.0133 18.3383 22.06 18.205 22.06C17.3517 22.02 16.525 22 15.725 22C15.325 22 14.9317 22 14.545 22C14.1717 22.0133 13.7717 22.0333 13.345 22.06Z"
    fill="#393C39"
  />
</svg>